<?xml version="1.0" encoding="utf-8"?>
<!-- Generator: Adobe Illustrator 22.0.0, SVG Export Plug-In . SVG Version: 6.00 Build 0)  -->
<svg version="1.1" id="Layer_1" xmlns="http://www.w3.org/2000/svg" xmlns:xlink="http://www.w3.org/1999/xlink" x="0px" y="0px"
	 viewBox="0 0 160 42" style="enable-background:new 0 0 160 42;" xml:space="preserve">
<style type="text/css">
	.st0{fill:#FFFFFF;}
</style>
<g>
	<g>
		<path class="st0" d="M74.1,16.5v2.6H60.8v-2.6H74.1z M74.1,31.5v2.6H60.8V24h7.9v2.6h-5v4.9H74.1z"/>
		<path class="st0" d="M84.4,32.5c-1.4-1.3-2-3.2-2-5.8V16.5h3.3v10.1c0,1.7,0.4,3,1.2,3.9c0.8,0.9,1.9,1.3,3.2,1.3s2.4-0.4,3.2-1.3
			c0.8-0.9,1.2-2.1,1.2-3.8V16.5h3.3v10c0,1.3-0.2,2.5-0.5,3.5c-0.3,1-0.9,1.8-1.5,2.5c-0.7,0.6-1.5,1.1-2.5,1.5
			c-1,0.3-2.1,0.5-3.3,0.5C87.6,34.4,85.7,33.8,84.4,32.5z"/>
		<path class="st0" d="M106,34.1V16.5h6.9c2.9,0,5.2,0.9,6.9,2.5c1.8,1.7,2.6,3.8,2.6,6.3c0,2.5-0.9,4.6-2.6,6.3
			c-1.7,1.7-4.1,2.6-6.9,2.6H106z M119,25.4c0-3.7-2-5.8-6-6.3h-3.6v12.4h3.6C116.5,31.5,118.6,29.5,119,25.4z"/>
		<path class="st0" d="M143.4,34.2l-5.9-14.4l-4.9,11.9h4.5v2.5h-8.8l7.6-17.7h3.3l7.5,17.7H143.4z"/>
	</g>
	<g>
		<path class="st0" d="M43.3,17.2c0.9-0.8,0.9-2.2,0.1-3c-0.1-0.2-0.3-0.4-0.5-0.5c-3-2.4-6.9-3.7-11.1-3.4
			c-7.3,0.7-13.1,6.5-13.8,13.8c-0.3,3.2,0.5,6.3,1.9,8.9c-3.8,3.6-6.7,6.4-6.8,6.6c-0.1,0.3,0,0.7,0.2,1.1c0.2,0.2,0.4,0.3,0.7,0.3
			c0,0,0,0,0,0c0.1,0,0.1,0,0.3,0C15.2,40.7,43,17.5,43.3,17.2L43.3,17.2z M22.2,24.2c0.5-5.1,4.6-9.3,9.7-9.9
			c2.4-0.3,4.8,0.2,6.7,1.3c-3.1,2.9-9.8,9.1-15.5,14.5C22.3,28.3,22,26.3,22.2,24.2z"/>
		<path class="st0" d="M48.6,24.8l-4.1,1.9c-0.6,5.6-5.4,10-11.1,10c-1.9,0-3.6-0.5-5.1-1.3l-3,3c2.3,1.5,5.1,2.3,8.1,2.3
			c8.4,0,15.3-6.8,15.3-15.3C48.6,25.2,48.6,25,48.6,24.8z"/>
	</g>
	<path class="st0" d="M52.3,5.6c-0.1-0.1-0.2-0.1-0.3-0.1c-2.1,0-4.7,1.3-6.2,3.1c-1.7,0.1-3.2,0.6-4.1,1.5
		c-0.1,0.1-0.1,0.2-0.1,0.4c0,0.1,0.1,0.2,0.3,0.3l1.6,0.4l0,0c-0.1,0.2-0.1,0.4,0,0.5l0.2,0.2L43,12.5c1,0.4,1.8,1.4,2.1,2.5
		l0.9-0.8l0.2,0.2c0.1,0.1,0.2,0.1,0.3,0.1c0.1,0,0.2,0,0.2-0.1l0,0l0.4,1.6c0,0.1,0.1,0.2,0.3,0.3c0,0,0.1,0,0.1,0
		c0.1,0,0.2,0,0.3-0.1c0.9-0.9,1.4-2.3,1.5-4c1.8-1.6,3.1-4.1,3.1-6.2C52.4,5.8,52.4,5.7,52.3,5.6z M49.1,9.9
		c-0.6,0-1.1-0.5-1.2-1.1c0-0.6,0.5-1.1,1.1-1.2c0.6,0,1.1,0.5,1.2,1.1C50.2,9.4,49.7,9.9,49.1,9.9z"/>
</g>
</svg>
